<svg width="372" height="267" viewBox="0 0 372 267" fill="none" xmlns="http://www.w3.org/2000/svg">
<path d="M370.431 193.458C330.591 194.139 314.33 140.917 309.681 132.347C296.376 107.83 272.946 99.1869 276.185 105.115C279.423 111.051 282.071 117.937 284.113 125.76C286.167 133.596 287.236 142.626 287.341 152.871C287.492 167.561 285.443 181.59 281.191 194.965C276.942 208.341 270.554 220.129 262.03 230.313C253.509 240.505 242.699 248.674 229.594 254.815C216.489 260.965 201.018 264.154 183.16 264.387C165.005 264.623 149.009 261.167 135.16 253.998C121.319 246.837 109.646 237.342 100.139 225.505C90.6422 213.676 83.4619 199.937 78.6085 184.284C73.7588 168.639 71.2481 152.612 71.0802 136.22C70.643 93.5301 81.3592 60.7673 103.214 37.9402C125.077 15.113 158.094 3.4071 202.273 2.8307C229.813 2.47139 273.739 11.3968 313.008 51.0849C330.386 68.657 369.8 131.798 370.431 193.458ZM233.359 134.557C233.193 118.376 228.834 105.567 220.274 96.1309C211.721 86.6985 198.982 82.0845 182.06 82.3053C163.997 82.5409 150.212 87.3316 140.694 96.6816C131.184 106.032 126.505 118.475 126.664 134.008C126.817 148.896 131.395 161.301 140.382 171.215C149.375 181.134 162.904 185.973 180.967 185.737C199.894 185.49 213.396 180.542 221.468 170.885C229.543 161.235 233.508 149.119 233.359 134.557Z" fill="#CAB4B5" fill-opacity="0.14"/>
<path d="M39.9337 35.3239L41.9895 236.034C28.8316 240.929 15.6254 241.101 2.36711 236.551L0.311299 35.8408C13.4705 30.7195 26.6767 30.5472 39.9337 35.3239Z" fill="#CAB4B5" fill-opacity="0.14"/>
</svg>
