<svg xmlns="http://www.w3.org/2000/svg" viewBox="0 0 152.1 64.8"><defs><style>.cls-1{opacity:0.05;}.cls-2{fill:#a61e22;}</style></defs><g id="Layer_2" data-name="Layer 2"><g id="Layer_1-2" data-name="Layer 1"><g class="cls-1"><path class="cls-2" d="M52.92,36.85A15.94,15.94,0,0,1,56,46.8q0,8.19-6.3,12.64T31.32,63.9H0V.9H29.52Q40.68.9,46.71,5.26a14,14,0,0,1,6,12,15.78,15.78,0,0,1-2.16,8.28,14.79,14.79,0,0,1-5.94,5.58A16.68,16.68,0,0,1,52.92,36.85ZM11.7,10.08V27.45H28.26c4.08,0,7.21-.74,9.41-2.21A7.26,7.26,0,0,0,41,18.81a7.39,7.39,0,0,0-3.28-6.53c-2.2-1.47-5.33-2.2-9.41-2.2ZM44.19,45.63q0-9.09-13.59-9.09H11.7V54.72H30.6Q44.19,54.72,44.19,45.63Z"/><path class="cls-2" d="M68.49.9h11.7v63H68.49Z"/><path class="cls-2" d="M140.22,31.68h11.07V56.79A35.2,35.2,0,0,1,140,62.73a43.51,43.51,0,0,1-13.32,2.07,35.93,35.93,0,0,1-17.37-4.19A31.08,31.08,0,0,1,97.11,49.05,31.83,31.83,0,0,1,92.7,32.4a31.83,31.83,0,0,1,4.41-16.65A31,31,0,0,1,109.3,4.18,36.39,36.39,0,0,1,126.81,0a38.22,38.22,0,0,1,14.4,2.61,28.26,28.26,0,0,1,10.89,7.65l-7.38,7.2a23.67,23.67,0,0,0-17.37-7.2,24.56,24.56,0,0,0-11.84,2.79,20.34,20.34,0,0,0-8.1,7.83,22.52,22.52,0,0,0-2.92,11.52,22.17,22.17,0,0,0,2.92,11.34,21,21,0,0,0,8.1,7.92,23.76,23.76,0,0,0,11.75,2.88,25.34,25.34,0,0,0,13-3.24Z"/></g></g></g></svg>