<svg width="18" height="18" viewBox="0 0 18 18" fill="none" xmlns="http://www.w3.org/2000/svg">
<path fill-rule="evenodd" clip-rule="evenodd" d="M9.0001 17.2553C13.6393 17.2553 17.4001 13.5212 17.4001 8.91489C17.4001 4.3086 13.6393 0.574463 9.0001 0.574463C4.36091 0.574463 0.600098 4.3086 0.600098 8.91489C0.600098 13.5212 4.36091 17.2553 9.0001 17.2553ZM10.0001 4.74468C10.0001 4.19239 9.55238 3.74468 9.0001 3.74468C8.44781 3.74468 8.0001 4.19239 8.0001 4.74468V8.91489C8.0001 9.18134 8.10643 9.43677 8.29551 9.62451L11.2654 12.5733C11.6573 12.9624 12.2904 12.9602 12.6796 12.5683C13.0687 12.1763 13.0664 11.5432 12.6745 11.1541L10.0001 8.49859V4.74468Z" fill="#171717"/>
</svg>
