<svg width="25" height="25" viewbox="0 0 25 25" fill="none" xmlns="http://www.w3.org/2000/svg">
<path fill-rule="evenodd" clip-rule="evenodd" d="M7.5185 1.066C8.69988 1.012 9.07655 1 12.0859 1C15.0952 1 15.4719 1.013 16.6523 1.066C17.8327 1.119 18.6384 1.306 19.3434 1.577C20.0816 1.854 20.7514 2.287 21.3053 2.847C21.8693 3.396 22.3044 4.06 22.5823 4.794C22.8563 5.494 23.0436 6.294 23.098 7.464C23.1524 8.639 23.1645 9.013 23.1645 12C23.1645 14.988 23.1514 15.362 23.098 16.535C23.0446 17.705 22.8563 18.505 22.5823 19.205C22.3044 19.9391 21.8686 20.6042 21.3053 21.154C20.7514 21.714 20.0816 22.146 19.3434 22.422C18.6384 22.694 17.8327 22.88 16.6543 22.934C15.4719 22.988 15.0952 23 12.0859 23C9.07655 23 8.69988 22.987 7.5185 22.934C6.34015 22.881 5.53443 22.694 4.82943 22.422C4.09011 22.146 3.42026 21.7133 2.86651 21.154C2.30289 20.6047 1.86673 19.9399 1.58845 19.206C1.31551 18.506 1.12818 17.706 1.0738 16.536C1.01941 15.361 1.00732 14.987 1.00732 12C1.00732 9.012 1.02042 8.638 1.0738 7.466C1.12717 6.294 1.31551 5.494 1.58845 4.794C1.86715 4.06008 2.30364 3.39531 2.86752 2.846C3.42048 2.2865 4.08966 1.85344 4.82842 1.577C5.53342 1.306 6.33914 1.12 7.5175 1.066H7.5185ZM16.5626 3.046C15.3944 2.993 15.0439 2.982 12.0859 2.982C9.12792 2.982 8.77743 2.993 7.60915 3.046C6.52848 3.095 5.94232 3.274 5.55155 3.425C5.03489 3.625 4.66527 3.862 4.27752 4.247C3.90996 4.60205 3.62708 5.03428 3.44965 5.512C3.29757 5.9 3.11729 6.482 3.06794 7.555C3.01456 8.715 3.00348 9.063 3.00348 12C3.00348 14.937 3.01456 15.285 3.06794 16.445C3.11729 17.518 3.29757 18.1 3.44965 18.488C3.6269 18.965 3.90991 19.398 4.27752 19.753C4.63505 20.118 5.07115 20.399 5.55155 20.575C5.94232 20.726 6.52848 20.905 7.60915 20.954C8.77743 21.007 9.12691 21.018 12.0859 21.018C15.0449 21.018 15.3944 21.007 16.5626 20.954C17.6433 20.905 18.2295 20.726 18.6202 20.575C19.1369 20.375 19.5065 20.138 19.8943 19.753C20.2619 19.398 20.5449 18.965 20.7221 18.488C20.8742 18.1 21.0545 17.518 21.1039 16.445C21.1572 15.285 21.1683 14.937 21.1683 12C21.1683 9.063 21.1572 8.715 21.1039 7.555C21.0545 6.482 20.8742 5.9 20.7221 5.512C20.5207 4.999 20.282 4.632 19.8943 4.247C19.5367 3.88207 19.1014 3.60121 18.6202 3.425C18.2295 3.274 17.6433 3.095 16.5626 3.046ZM10.6709 15.391C11.4611 15.7176 12.3411 15.7617 13.1604 15.5157C13.9798 15.2697 14.6877 14.7489 15.1633 14.0422C15.6389 13.3356 15.8527 12.4869 15.7681 11.6411C15.6834 10.7953 15.3057 10.005 14.6994 9.405C14.3129 9.02148 13.8456 8.72781 13.3311 8.54515C12.8165 8.36248 12.2676 8.29536 11.7238 8.34862C11.18 8.40187 10.6549 8.57418 10.1862 8.85313C9.71755 9.13208 9.317 9.51074 9.01341 9.96185C8.70981 10.413 8.51073 10.9253 8.43049 11.462C8.35024 11.9986 8.39084 12.5463 8.54935 13.0655C8.70787 13.5847 8.98035 14.0626 9.34719 14.4647C9.71403 14.8668 10.1661 15.1832 10.6709 15.391ZM8.05934 8.002C8.58811 7.47697 9.21586 7.0605 9.90674 6.77636C10.5976 6.49222 11.3381 6.34597 12.0859 6.34597C12.8337 6.34597 13.5742 6.49222 14.2651 6.77636C14.9559 7.0605 15.5837 7.47697 16.1125 8.002C16.6412 8.52702 17.0607 9.15032 17.3468 9.8363C17.633 10.5223 17.7803 11.2575 17.7803 12C17.7803 12.7425 17.633 13.4777 17.3468 14.1637C17.0607 14.8497 16.6412 15.473 16.1125 15.998C15.0445 17.0583 13.5961 17.654 12.0859 17.654C10.5756 17.654 9.12725 17.0583 8.05934 15.998C6.99143 14.9377 6.39148 13.4995 6.39148 12C6.39148 10.5005 6.99143 9.06234 8.05934 8.002ZM19.0432 7.188C19.1743 7.06527 19.2792 6.91768 19.3517 6.75397C19.4243 6.59027 19.463 6.41377 19.4657 6.23493C19.4683 6.05609 19.4347 5.87855 19.367 5.71281C19.2993 5.54707 19.1988 5.39651 19.0714 5.27004C18.944 5.14357 18.7924 5.04376 18.6255 4.97652C18.4585 4.90928 18.2797 4.87598 18.0996 4.87858C17.9195 4.88119 17.7417 4.91965 17.5769 4.9917C17.412 5.06374 17.2633 5.1679 17.1397 5.298C16.8993 5.55103 16.7677 5.88712 16.7728 6.23493C16.7779 6.58274 16.9194 6.91488 17.1671 7.16084C17.4148 7.40681 17.7493 7.54723 18.0996 7.5523C18.4499 7.55737 18.7884 7.42669 19.0432 7.188Z" fill="black"/>
</svg>
