<svg xmlns="http://www.w3.org/2000/svg" width="287" viewBox="0 0 499.26 64.8"><defs><style>.cls-1{fill:#a61e22;}.cls-2{fill:#fff;}</style></defs><g id="Layer_2" data-name="Layer 2"><g id="Layer_1-2" data-name="Layer 1"><path class="cls-1" d="M52.92,36.85A15.94,15.94,0,0,1,56,46.8q0,8.19-6.3,12.64T31.32,63.9H0V.9H29.52Q40.68.9,46.71,5.26a14,14,0,0,1,6,12,15.78,15.78,0,0,1-2.16,8.28,14.79,14.79,0,0,1-5.94,5.58A16.68,16.68,0,0,1,52.92,36.85ZM11.7,10.08V27.45H28.26c4.08,0,7.21-.73,9.41-2.2A7.29,7.29,0,0,0,41,18.81a7.39,7.39,0,0,0-3.28-6.53c-2.2-1.46-5.33-2.2-9.41-2.2ZM44.19,45.63q0-9.09-13.59-9.09H11.7V54.72H30.6Q44.19,54.72,44.19,45.63Z"/><path class="cls-1" d="M68.49.9h11.7v63H68.49Z"/><path class="cls-1" d="M140.22,31.68h11.07V56.79A35.2,35.2,0,0,1,140,62.73a43.51,43.51,0,0,1-13.32,2.07,35.93,35.93,0,0,1-17.37-4.19A31.08,31.08,0,0,1,97.11,49.05,31.83,31.83,0,0,1,92.7,32.4a31.83,31.83,0,0,1,4.41-16.65A31,31,0,0,1,109.3,4.18,36.39,36.39,0,0,1,126.81,0a38.22,38.22,0,0,1,14.4,2.61,28.26,28.26,0,0,1,10.89,7.65l-7.38,7.2a23.67,23.67,0,0,0-17.37-7.2,24.56,24.56,0,0,0-11.84,2.79,20.34,20.34,0,0,0-8.1,7.83,22.52,22.52,0,0,0-2.92,11.52,22.17,22.17,0,0,0,2.92,11.34,21,21,0,0,0,8.1,7.92,23.76,23.76,0,0,0,11.75,2.88,25.34,25.34,0,0,0,13-3.24Z"/><path class="cls-2" d="M244,63.9l-.09-37.8L225.39,57.24h-6.57L200.37,26.91v37H186.69V.9h12.06l23.58,39.15L245.55.9h12l.18,63Z"/><path class="cls-2" d="M321.42,52.2V63.9H272.64V.9h47.61V12.6H287.13V26.28h29.25V37.62H287.13V52.2Z"/><path class="cls-2" d="M333,.9h28.62a40.2,40.2,0,0,1,18.13,3.92,29.3,29.3,0,0,1,12.24,11,31,31,0,0,1,4.37,16.56A31,31,0,0,1,392,49a29.32,29.32,0,0,1-12.24,11,40.2,40.2,0,0,1-18.13,3.91H333Zm27.9,51q9.45,0,15.07-5.26t5.63-14.27q0-9-5.63-14.26t-15.07-5.27H347.61V51.93Z"/><path class="cls-2" d="M407.37.9H422v63H407.37Z"/><path class="cls-2" d="M478.38,50.4H449.13l-5.58,13.5H428.61L456.69.9h14.4l28.17,63H484Zm-4.59-11.07-10-24.12-10,24.12Z"/></g></g></svg>
