<svg width="106" height="33" viewBox="0 0 106 33" fill="none" xmlns="http://www.w3.org/2000/svg">
<path d="M20.1853 6.61462V28.6234C20.1707 28.6265 20.1561 28.6297 20.1411 28.6329C17.969 29.0916 15.7238 28.2826 14.3149 26.5669L5.0306 15.2609V28.6234C3.37471 28.9133 1.69785 28.9155 0 28.6234V6.61462C0.0133513 6.61049 0.0267027 6.60667 0.0397362 6.60254C2.0755 5.99346 4.27784 6.69409 5.6241 8.33821L15.1544 19.9771V6.61462C16.741 6.19087 18.4214 6.2074 20.1853 6.61462Z" fill="black"/>
<path d="M25.9352 27.7542C24.6236 27.0075 23.5984 25.9709 22.8603 24.645C22.1215 23.3194 21.7528 21.8151 21.7528 20.1312C21.7528 18.448 22.1215 16.9431 22.8603 15.6175C23.5984 14.2916 24.6236 13.2556 25.9352 12.5083C27.2469 11.7615 28.7282 11.3877 30.38 11.3877C32.0311 11.3877 33.508 11.7615 34.8101 12.5083C36.1115 13.2553 37.1316 14.2916 37.8704 15.6175C38.6085 16.9431 38.9779 18.448 38.9779 20.1312C38.9779 21.8151 38.6085 23.3194 37.8704 24.645C37.1316 25.9709 36.1115 27.0075 34.8101 27.7542C33.508 28.5016 32.0311 28.8748 30.38 28.8748C28.7282 28.8748 27.2469 28.5016 25.9352 27.7542ZM33.2508 23.5559C33.9985 22.7036 34.373 21.5624 34.373 20.1309C34.373 18.7001 33.9985 17.5582 33.2508 16.706C32.5025 15.8537 31.5457 15.4277 30.38 15.4277C29.2143 15.4277 28.2523 15.8537 27.4945 16.706C26.7366 17.5582 26.3577 18.7001 26.3577 20.1309C26.3577 21.5621 26.7366 22.7036 27.4945 23.5559C28.2523 24.4081 29.2143 24.8341 30.38 24.8341C31.5457 24.8341 32.5025 24.4081 33.2508 23.5559Z" fill="black"/>
<path d="M61.9989 8.60686C61.4636 8.11159 61.1959 7.49679 61.1959 6.76342C61.1959 6.03037 61.4636 5.41557 61.9989 4.91998C62.5342 4.42471 63.2279 4.17676 64.0804 4.17676C64.9324 4.17676 65.6267 4.41454 66.162 4.89042C66.6973 5.3663 66.9647 5.96075 66.9647 6.67442C66.9647 7.44752 66.697 8.0868 66.162 8.59224C65.6267 9.09768 64.9327 9.35041 64.0804 9.35041C63.2279 9.35009 62.5342 9.10245 61.9989 8.60686Z" fill="black"/>
<path d="M61.7935 11.7082C61.8072 11.7047 61.8212 11.7015 61.8348 11.6984C64.3192 11.1064 66.6982 13.0179 66.6982 15.5715V28.6234C65.0633 28.9705 63.4284 28.9705 61.7935 28.6234V11.7082V11.7082Z" fill="black"/>
<path d="M84.2401 13.343C85.5291 14.6005 86.1738 16.4666 86.1738 18.9394V28.6233C84.5567 28.9621 82.9215 28.9548 81.2691 28.6233V19.6941C81.2691 18.3529 80.9754 17.3519 80.3889 16.6916C79.8017 16.0314 78.953 15.7011 77.8423 15.7011C76.6054 15.7011 75.6202 16.0838 74.8868 16.8487C74.1528 17.6141 73.7863 18.7509 73.7863 20.2599V28.6233C72.269 28.9854 70.6243 28.9555 68.8816 28.6233V11.7081C70.4367 11.3714 71.9985 11.374 73.5663 11.7081V13.6888C74.2158 12.9764 75.0229 12.4262 75.9874 12.0384C76.9512 11.6509 78.0098 11.4566 79.1628 11.4566C81.258 11.4566 82.9511 12.0854 84.2401 13.343Z" fill="black"/>
<path d="M105.069 21.5491H92.2727C92.5032 22.5975 93.0481 23.4253 93.9076 24.0328C94.7669 24.6409 95.6894 24.9445 96.9683 24.9445C100.034 24.9445 101.436 22.2501 105.028 24.8781C103.434 26.7018 100.379 28.908 97.3186 28.908C95.4109 28.908 93.3939 28.5026 91.9269 27.7585C90.4595 27.0146 89.3275 25.9821 88.5312 24.6616C87.7342 23.3411 87.3365 21.8429 87.3365 20.1657C87.3365 18.5101 87.7295 17.0167 88.5156 15.6854C89.3017 14.3547 90.381 13.3171 91.7539 12.5729C93.1266 11.829 94.6623 11.4568 96.3602 11.4568C98.0157 11.4568 99.5146 11.8135 100.856 12.5258C102.197 13.2389 103.25 14.2606 104.016 15.5913C104.781 16.9226 105.163 18.4682 105.163 20.2286C105.163 20.2916 105.132 20.7318 105.069 21.5491ZM93.5932 16.1101C92.8386 16.7388 92.3773 17.5984 92.2098 18.6881H100.542C100.374 17.6191 99.9129 16.7652 99.1582 16.1256C98.4035 15.4864 97.481 15.1666 96.3913 15.1666C95.2803 15.1666 94.3479 15.4813 93.5932 16.1101Z" fill="black"/>
<path d="M45.3695 32.5C45.3571 29.0398 49.4684 27.6751 50.1324 27.279C52.0321 26.1454 52.7207 24.1186 52.2613 24.3945C51.8013 24.6704 51.2689 24.8942 50.6649 25.0646C50.0599 25.236 49.3641 25.3208 48.5757 25.3208C47.4453 25.3208 46.368 25.1304 45.3431 24.7493C44.3182 24.3684 43.4177 23.8032 42.6426 23.054C41.867 22.305 41.2493 21.359 40.79 20.2155C40.33 19.0721 40.1002 17.7258 40.1002 16.1748C40.1002 14.5981 40.3821 13.2121 40.9477 12.0159C41.5125 10.8203 42.2548 9.81515 43.1751 9.00008C44.0948 8.18597 45.159 7.57467 46.3683 7.16713C47.5769 6.75992 48.8125 6.55615 50.0739 6.55615C53.359 6.55615 55.8691 7.51586 57.6035 9.434C59.3379 11.3528 60.2054 14.2303 60.2054 18.0672C60.2054 20.459 59.4746 24.2654 56.3815 27.6402C55.012 29.1336 50.1143 32.5 45.3695 32.5ZM50.039 20.6495C51.2841 20.6495 52.274 20.2823 53.0087 19.5473C53.743 18.813 54.1108 17.7109 54.1108 16.2413C54.1108 14.6725 53.756 13.4712 53.0462 12.6364C52.3364 11.8023 51.3836 11.3849 50.1884 11.3849C49.0427 11.3849 48.0836 11.7714 47.3118 12.543C46.5396 13.3151 46.1537 14.4856 46.1537 16.0544C46.1537 17.6982 46.5209 18.875 47.2558 19.5845C47.9902 20.2944 48.9184 20.6495 50.039 20.6495Z" fill="#A61E22"/>
<path d="M57.8683 3.94115H42.4233C42.06 2.79421 42.06 1.64726 42.4233 0.5H57.8683C58.2491 1.64726 58.2491 2.79421 57.8683 3.94115Z" fill="black"/>
</svg>
