<svg width="1456" height="48" viewBox="0 0 1456 48" fill="none" xmlns="http://www.w3.org/2000/svg">
<path d="M37.2464 21.4076C37.2464 19.346 35.1848 17.1469 31.7488 17.1469C27.9005 17.1469 23.5024 20.0332 22.8152 25.8057C22.128 31.5782 25.7014 34.1896 29.4123 34.1896C33.1232 34.1896 34.91 32.8152 36.8341 30.891C35.1848 28.8294 32.9858 29.7915 32.5735 29.9289C32.1611 30.2038 31.4739 30.4787 30.3744 30.4787C29 30.4787 27.4882 29.7915 27.4882 27.1801C36.5592 26.218 37.2464 23.4692 37.2464 21.4076ZM32.8483 21.6825C32.8483 22.3697 32.5735 23.4692 28.0379 24.019C29 20.5829 30.7867 20.3081 31.6114 20.3081C32.436 20.4455 32.8483 20.9953 32.8483 21.6825ZM17.5924 22.2322C17.5924 22.2322 15.6682 28.2796 15.5308 28.8294C15.5308 28.2796 14.019 17.4218 14.019 17.4218C10.7204 17.4218 8.93365 19.7583 8.109 22.2322C8.109 22.2322 5.77251 28.2796 5.63507 28.8294C5.49763 28.4171 5.22275 22.3697 5.22275 22.3697C4.94787 19.346 2.19905 17.4218 0 17.4218L2.74882 33.9147C6.18483 33.9147 8.109 31.5782 9.07109 29.1043C9.07109 29.1043 11.1327 23.7441 11.2701 23.4692C11.2701 23.7441 12.782 33.9147 12.782 33.9147C16.218 33.9147 18.1422 31.7156 19.1043 29.3791L23.9147 17.4218C20.3412 17.4218 18.5545 19.7583 17.5924 22.2322ZM50.0284 17.0095C47.9668 17.0095 46.3175 18.109 44.9431 19.8957L46.0427 10C43.1564 10 40.9573 12.4739 40.4076 16.0474L38.2085 33.7772C39.8578 33.7772 41.5071 33.3649 42.4692 32.128C43.2938 33.2275 44.5308 34.0521 46.3175 34.0521C51.128 34.0521 54.4265 28.5545 54.4265 23.3318C54.564 18.5213 52.2275 17.0095 50.0284 17.0095ZM49.4787 25.5308C48.9289 28.4171 47.4171 30.3412 45.7678 30.3412C44.2559 30.3412 43.5687 29.654 43.5687 29.654C43.8436 27.1801 44.1185 25.5308 44.6682 24.1564C45.218 22.782 46.5924 20.7204 47.9668 20.7204C49.3412 20.8578 50.0284 22.6446 49.4787 25.5308ZM66.5213 17.4218H63.2227V17.2844C63.4976 15.0853 63.91 13.9858 65.6967 13.8483C66.7962 13.7109 67.346 13.1611 67.4834 12.4739C67.6208 11.9242 67.8957 10.1374 67.8957 10.1374C61.1611 10.1374 59.0995 13.0237 58.5498 17.4218V17.5592H58.4123C57.3128 17.5592 56.0758 18.7962 55.9384 20.3081L55.8009 20.8578H58L56.0758 36.2512L55.5261 39C55.6635 39 55.6635 39 55.8009 39C58.9621 38.8626 60.8863 36.3886 61.436 32.8152L62.9479 20.7204H64.0474C65.0095 20.7204 66.2464 19.7583 66.5213 17.9716V17.4218ZM83.8389 17.1469C79.9905 17.1469 76.4171 20.0332 75.3175 24.4313C74.218 28.8294 75.8673 34.1896 81.5024 34.1896C87.1374 34.1896 90.436 28.6919 90.436 24.1564C90.2986 19.6209 87.2749 17.1469 83.8389 17.1469ZM85.3507 25.3934C85.2133 27.455 84.2512 30.4787 81.7772 30.4787C79.3033 30.4787 79.7156 26.9052 79.8531 25.2559C80.128 23.4692 81.09 20.8578 83.2891 20.8578C85.3507 20.8578 85.6256 23.1943 85.3507 25.3934ZM109.403 22.2322C109.403 22.2322 107.479 28.2796 107.341 28.8294C107.341 28.2796 105.829 17.4218 105.829 17.4218C102.531 17.4218 100.744 19.7583 99.9194 22.2322C99.9194 22.2322 97.5829 28.2796 97.4455 28.8294C97.4455 28.4171 97.0332 22.3697 97.0332 22.3697C96.8957 19.346 94.0095 17.5592 91.8104 17.5592L94.5592 34.0521C97.9953 34.0521 99.9194 31.7156 100.882 29.2417C100.882 29.2417 102.943 23.8815 103.081 23.6066C103.081 23.8815 104.592 34.0521 104.592 34.0521C108.028 34.0521 109.953 31.8531 110.915 29.5166L115.45 17.4218C112.014 17.4218 110.227 19.7583 109.403 22.2322ZM69.6825 10.1374L66.9337 32.6777L66.3839 35.4265C66.5213 35.4265 66.5213 35.4265 66.6588 35.4265C69.6825 35.4265 71.8815 32.6777 72.1564 29.3791L73.8057 16.4597C74.218 12.6114 71.7441 10.1374 69.6825 10.1374Z" fill="black"/>
<path fill-rule="evenodd" clip-rule="evenodd" d="M270.294 30.5633C265.636 38.4606 258.259 36.1691 256.043 34.3749C255.101 35.0147 253.447 36.417 251.242 36.255C246.547 35.9104 244.866 29.2007 244.866 29.2007C244.9 29.2275 243.467 29.6949 242.693 29.6866C242.683 31.6542 240.982 36.3546 236.392 36.2945C231.241 36.2273 230.194 28.5531 230.194 28.5531C230.194 28.5531 229.681 29.2649 227.732 29.9739C227.83 28.4622 227.758 36.0644 221.585 36.1761C216.704 36.2646 215.386 28.4348 215.386 28.4348C215.386 28.4348 214.54 29.3143 212.899 29.6194C213.003 28.0831 212.833 36.2019 206.659 36.1761C202.486 36.1588 201.06 31.353 201.171 30.686C201.313 29.8359 199.761 36.2957 195.708 36.195C194.035 36.1459 192.788 34.9349 192.006 33.3204C190.958 34.5189 189.438 36.195 187.732 36.195C184.669 36.195 183.319 33.6337 183.548 26.3179C183.567 25.4502 183.505 25.109 182.642 24.9792C182.124 24.8928 181.594 24.7292 181.033 24.643C180.853 25.243 179.328 35.9998 174.084 36.204C172.325 36.2725 171.363 34.7485 170.573 33.6174C169.362 35.2194 167.763 36.255 165.486 36.255C161.628 36.255 159 33.1365 159 29.2895C159 25.4425 161.628 22.3242 165.486 22.3242C166.168 22.3242 166.36 22.422 166.983 22.6038C165.701 10.9365 168.727 9.11303 171.375 9.11303C173.916 9.11303 178.259 15.012 172.149 29.9751C173.505 34.4381 176.43 34.1857 177.835 24.9982C178.121 23.1307 177.356 20.6105 178.546 20.2588C180.72 19.616 180.951 21.5446 181.97 21.866C183.048 22.2056 183.677 22.1724 184.712 22.3885C186.48 22.7339 187.171 23.6838 186.955 25.7996C186.696 28.4767 186.244 32.3732 187.624 32.8481C188.619 33.1931 190.436 31.1293 190.755 30.0001C191.073 28.871 191.14 28.4845 191.168 27.6563C191.211 25.8861 191.265 24.5886 191.567 23.2499C191.697 22.7319 191.844 22.3888 192.43 22.3654C192.912 22.3531 193.794 22.2079 194.182 22.51C194.7 22.8988 194.635 23.2933 194.576 24.3316C193.974 39.1353 198.606 31.7452 199.987 25.8279C199.495 19.1369 199.832 9.23555 204.025 9.06949C206.206 8.98313 207.17 10.7301 207.276 12.034C207.576 15.7168 205.896 21.8172 203.686 25.9197C202.424 34.2907 209.208 35.9459 210.293 29.2642C208.518 28.4202 206.599 25.0044 208.16 23.3397C209.036 22.4055 212.682 23.7476 212.742 26.6748C214.53 26.1965 214.769 25.1867 214.794 25.354C214.302 18.663 214.758 9.23564 218.951 9.06957C221.132 8.98321 222.096 10.7301 222.202 12.0341C222.502 15.7168 220.822 21.8173 218.612 25.9199C217.349 34.2907 224.134 35.946 225.218 29.2643C223.904 29.0107 221.13 25.3775 222.731 23.3398C223.586 22.2509 227.219 24.5154 227.625 26.7717C229.343 26.2855 229.577 25.3078 229.601 25.4724C229.11 18.7816 229.566 9.35422 233.759 9.18815C235.939 9.10179 236.903 10.8487 237.009 12.1527C237.309 15.8354 235.629 21.936 233.419 26.0385C232.157 34.4095 238.941 36.0644 240.026 29.3827C238.22 29.082 235.653 25.2458 237.719 23.2833C238.544 22.4992 241.698 24.5346 242.436 26.8568C243.462 26.8173 244.1 26.4636 244.237 26.4279C242.599 18.573 243.818 9.14836 248.329 9.06969C250.767 9.02721 253.151 10.3877 252.104 17.8606C251.106 24.9906 247.516 27.9827 247.524 28.0285C247.733 28.8827 249.575 36.0312 254.214 32.2594C253.974 31.7157 253.733 31.1603 253.599 30.4874C252.83 26.5677 254.34 22.1404 258.445 21.4249C260.796 21.0149 263.012 22.1598 263.362 24.741C263.938 28.9645 260.124 32.0233 258.674 32.6868C258.024 32.3178 264.562 36.5107 268.442 28.108C268.667 27.6282 268.938 27.6689 269.29 27.9162C269.538 28.0908 270.951 29.4299 270.294 30.5633ZM168.292 28.2517C168.095 27.6615 167.69 26.361 167.546 25.7976C166.757 25.1114 166.194 25 165.181 25C162.931 25 161.606 27.0809 161.606 29.3247C161.606 31.5684 163.049 33.6496 165.3 33.6496C167.25 33.6496 168.735 32.3235 169.188 30.4462C168.871 29.7143 168.556 29.0417 168.292 28.2517ZM171.32 12.2015C169.738 12.2015 169.202 15.974 169.306 19.1924C169.398 22.0378 170.193 24.5428 170.606 25.6653C170.71 25.8059 170.691 25.7144 170.784 25.8636C173.53 19.8472 172.391 12.2015 171.32 12.2015ZM204.251 12.32C202.207 12.0855 202.22 20.6001 202.474 22.51C203.536 20.8118 205.38 12.7772 204.251 12.32ZM219.177 12.32C217.133 12.0855 217.146 20.6001 217.4 22.51C218.461 20.8118 220.306 12.7772 219.177 12.32ZM233.984 12.4384C231.94 12.204 231.953 20.7186 232.207 22.6287C233.269 20.9303 235.113 12.8956 233.984 12.4384ZM248.555 11.8215C245.37 12.461 246.112 23.0789 246.595 24.9412C250.346 19.789 250.424 11.628 248.555 11.8215ZM260.49 25.0903C260.328 24.4133 259.518 24.0515 258.959 24.1407C257.36 24.359 255.81 26.3505 256.41 29.3824C256.543 30.0576 256.878 30.6792 256.872 30.6585C260.451 28.2577 260.755 26.3659 260.49 25.0903ZM193.057 20.0218C192.6 20.0219 192.153 19.8864 191.773 19.6326C191.393 19.3787 191.097 19.0179 190.922 18.5957C190.747 18.1735 190.701 17.7089 190.79 17.2607C190.879 16.8124 191.099 16.4007 191.422 16.0775C191.746 15.7543 192.157 15.5342 192.605 15.4451C193.054 15.3559 193.518 15.4016 193.941 15.5765C194.363 15.7514 194.724 16.0476 194.977 16.4276C195.231 16.8076 195.367 17.2544 195.367 17.7114C195.367 18.0148 195.307 18.3152 195.191 18.5955C195.075 18.8758 194.905 19.1305 194.69 19.345C194.476 19.5596 194.221 19.7298 193.941 19.8459C193.661 19.962 193.36 20.0218 193.057 20.0218Z" fill="black"/>
<path d="M359.05 14.0131H366.672C371.532 14.0131 375.546 16.8247 375.546 23.2442V24.5931C375.546 31.0613 371.792 33.9704 366.819 33.9704H359.05V14.0131ZM363.308 17.6373V30.33H366.575C369.338 30.33 371.19 28.526 371.19 24.5118V23.4555C371.19 19.4412 369.24 17.6373 366.429 17.6373H363.308ZM377.805 17.8323H381.218L381.77 21.5865C382.421 19.0349 384.078 17.6698 387.085 17.6698H388.141V21.9765H386.386C382.924 21.9765 382.079 23.1792 382.079 26.5921V34.0192H377.87V17.8323H377.805ZM388.986 26.2508V25.7957C388.986 20.3838 392.448 17.426 397.161 17.426C401.972 17.426 405.336 20.3838 405.336 25.7957V26.2508C405.336 31.5652 402.069 34.4255 397.161 34.4255C391.944 34.3767 388.986 31.5814 388.986 26.2508ZM401.029 26.202V25.7957C401.029 22.7891 399.518 20.9852 397.112 20.9852C394.756 20.9852 393.196 22.6429 393.196 25.7957V26.202C393.196 29.1111 394.707 30.7688 397.112 30.7688C399.518 30.7201 401.029 29.1111 401.029 26.202ZM407.546 17.8323H411.056L411.463 20.8877C412.308 18.8399 414.112 17.426 416.777 17.426C420.889 17.426 423.603 20.3838 423.603 25.8607V26.3158C423.603 31.6302 420.596 34.4417 416.777 34.4417C414.226 34.4417 412.47 33.2879 411.609 31.4351V39.6098H407.497L407.546 17.8323ZM419.329 26.202V25.8445C419.329 22.6266 417.671 21.0339 415.461 21.0339C413.104 21.0339 411.544 22.8379 411.544 25.8445V26.1533C411.544 29.0136 413.055 30.8176 415.412 30.8176C417.833 30.7688 419.329 29.2249 419.329 26.202ZM429.827 31.0288L429.47 33.9867H425.862V12.4204H429.974V20.6926C430.884 18.5799 432.688 17.426 435.239 17.426C439.107 17.4748 441.968 20.1401 441.968 25.5032V26.007C441.968 31.3701 439.253 34.4417 435.142 34.4417C432.428 34.3767 430.672 33.1253 429.827 31.0288ZM437.645 26.007V25.6007C437.645 22.6429 436.036 20.9852 433.777 20.9852C431.469 20.9852 429.86 22.8379 429.86 25.6495V26.007C429.86 29.0136 431.42 30.7688 433.728 30.7688C436.198 30.7688 437.645 29.2249 437.645 26.007ZM443.771 26.2508V25.7957C443.771 20.3838 447.233 17.426 451.946 17.426C456.757 17.426 460.121 20.3838 460.121 25.7957V26.2508C460.121 31.5652 456.806 34.4255 451.946 34.4255C446.729 34.3767 443.771 31.5814 443.771 26.2508ZM455.847 26.202V25.7957C455.847 22.7891 454.335 20.9852 451.93 20.9852C449.573 20.9852 448.013 22.6429 448.013 25.7957V26.202C448.013 29.1111 449.525 30.7688 451.93 30.7688C454.351 30.7201 455.847 29.1111 455.847 26.202ZM465.63 25.6007L459.958 17.8323H464.818L468.084 22.6916L471.4 17.8323H476.21L470.457 25.5519L476.519 33.9867H471.757L468.052 28.6236L464.444 33.9867H459.471L465.63 25.6007Z" fill="black"/>
<path d="M332.852 14.0132L323.426 20.0264L332.852 26.0396L323.426 32.0528L314 26.0071L323.426 19.9939L314 14.0132L323.426 8L332.852 14.0132ZM323.377 33.9868L332.803 27.9736L342.23 33.9868L332.803 40L323.377 33.9868ZM332.852 26.0071L342.278 19.9939L332.852 14.0132L342.23 8L351.656 14.0132L342.23 20.0264L351.656 26.0396L342.23 32.0528L332.852 26.0071Z" fill="black"/>
<path d="M564.936 34.7749V20.2199H565.195L575.79 34.7749H579.124V13.4006H575.419V27.919H575.16L564.565 13.4006H561.231V34.7749H564.936ZM589.607 35.1049C594.497 35.1049 597.498 31.9519 597.498 26.6725C597.498 21.4297 594.497 18.2401 589.607 18.2401C584.754 18.2401 581.717 21.4297 581.717 26.6725C581.754 31.9519 584.717 35.1049 589.607 35.1049ZM589.607 32.0252C587.014 32.0252 585.532 30.0821 585.532 26.6725C585.532 23.2995 587.014 21.3198 589.607 21.3198C592.2 21.3198 593.682 23.2995 593.682 26.6725C593.682 30.0821 592.2 32.0252 589.607 32.0252ZM600.869 14.6105V18.6801H598.275V21.6131H600.869V30.4487C600.869 33.6017 602.35 34.8483 606.129 34.8483C606.833 34.8483 607.537 34.7749 608.092 34.6649V31.8053C607.648 31.8419 607.351 31.8786 606.833 31.8786C605.277 31.8786 604.573 31.182 604.573 29.5688V21.6131H608.092V18.6801H604.573V14.6105H600.869ZM610.315 34.7749H614.019V18.5701H610.315V34.7749ZM612.167 15.8937C613.39 15.8937 614.39 14.9038 614.39 13.6939C614.39 12.4474 613.39 11.4575 612.167 11.4575C610.945 11.4575 609.944 12.4474 609.944 13.6939C609.944 14.9038 610.945 15.8937 612.167 15.8937ZM624.169 35.1049C629.059 35.1049 632.06 31.9519 632.06 26.6725C632.06 21.4297 629.059 18.2401 624.169 18.2401C619.317 18.2401 616.279 21.4297 616.279 26.6725C616.279 31.9519 619.243 35.1049 624.169 35.1049ZM624.169 32.0252C621.576 32.0252 620.095 30.0821 620.095 26.6725C620.095 23.2995 621.576 21.3198 624.169 21.3198C626.726 21.3198 628.244 23.2995 628.244 26.6725C628.207 30.0821 626.726 32.0252 624.169 32.0252ZM634.245 34.7749H637.95V25.3526C637.95 22.9696 639.358 21.4664 641.543 21.4664C643.803 21.4664 644.84 22.7129 644.84 25.1693V34.7749H648.545V24.2894C648.545 20.4032 646.544 18.2401 642.914 18.2401C640.469 18.2401 638.839 19.34 638.061 21.1731H637.802V18.5701H634.208C634.245 18.5701 634.245 34.7749 634.245 34.7749Z" fill="black"/>
<path fill-rule="evenodd" clip-rule="evenodd" d="M525.712 12.0326C526.79 12.9024 527.18 12.8337 529.199 12.6964L548.216 11.5519C548.629 11.5519 548.285 11.1399 548.147 11.0941L544.982 8.82806C544.385 8.37028 543.559 7.82093 542.022 7.95826L523.625 9.30874C522.959 9.37741 522.822 9.72075 523.097 9.97254L525.712 12.0326ZM526.859 16.4502V36.4098C526.859 37.4857 527.387 37.8748 528.602 37.8061L549.501 36.593C550.717 36.5243 550.854 35.7918 550.854 34.922V15.0998C550.854 14.23 550.51 13.7493 549.776 13.818L527.937 15.0998C527.134 15.1684 526.859 15.5804 526.859 16.4502ZM547.482 17.5261C547.62 18.1212 547.482 18.7392 546.886 18.8079L545.876 19.0139V33.7547C545.005 34.2125 544.202 34.4871 543.513 34.4871C542.435 34.4871 542.16 34.1438 541.357 33.1367L534.773 22.8135V32.7933L536.861 33.2511C536.861 33.2511 536.861 34.4642 535.186 34.4642L530.552 34.7389C530.415 34.4642 530.552 33.8005 531.011 33.6631L532.227 33.3198V20.1354L530.552 19.9981C530.415 19.403 530.759 18.5332 531.699 18.4645L536.677 18.1212L543.536 28.5588V19.3343L541.793 19.1283C541.655 18.3959 542.206 17.8465 542.871 17.7778L547.482 17.5261ZM522.088 7.47759L541.242 6.08133C543.582 5.87532 544.202 6.01266 545.67 7.08847L551.772 11.3688C552.781 12.1013 553.125 12.3073 553.125 13.1084V36.6159C553.125 38.0808 552.598 38.9506 550.717 39.0879L528.488 40.4384C527.066 40.5071 526.4 40.3011 525.666 39.3626L521.147 33.5258C520.344 32.45 520 31.6488 520 30.7104V9.81231C520 8.59917 520.551 7.61492 522.088 7.47759Z" fill="black"/>
<path fill-rule="evenodd" clip-rule="evenodd" d="M700.14 26.4336L712.433 13.9905C713.268 13.1451 714.379 12.6802 715.564 12.6802C716.747 12.6802 717.859 13.1446 718.693 13.99L719.651 14.9595L721.566 13.0201L720.609 12.0507C719.263 10.6888 717.472 9.93872 715.563 9.93872C713.655 9.93916 711.863 10.6892 710.517 12.0516L698.225 24.4943L700.14 26.4336Z" fill="black"/>
<path fill-rule="evenodd" clip-rule="evenodd" d="M716.587 18.1236L714.662 16.1871L702.311 28.6118C700.577 30.3566 697.755 30.357 696.021 28.6127C694.287 26.868 694.287 24.0287 696.021 22.284L706.678 11.5635L704.753 9.62744L694.097 20.348C691.301 23.1603 691.301 27.7368 694.097 30.5488C695.449 31.9087 697.249 32.6581 699.166 32.6581C701.083 32.6581 702.884 31.9082 704.236 30.5483L716.587 18.1236Z" fill="black"/>
<path fill-rule="evenodd" clip-rule="evenodd" d="M728.806 20.4506C727.455 19.0907 725.655 18.3417 723.737 18.3417C721.819 18.3422 720.018 19.0911 718.666 20.4515L706.316 32.876L708.24 34.8125L720.591 22.3876C722.326 20.6428 725.148 20.6432 726.881 22.3871C727.72 23.2309 728.182 24.3541 728.182 25.5509C728.182 26.7482 727.72 27.8718 726.881 28.7155L716.225 39.4363L718.15 41.3723L728.806 30.652C731.602 27.8396 731.602 23.263 728.806 20.4506Z" fill="black"/>
<path fill-rule="evenodd" clip-rule="evenodd" d="M722.763 24.5662L710.471 37.0093C708.744 38.7562 705.936 38.7571 704.21 37.0097L703.253 36.0403L701.337 37.9796L702.295 38.9491C703.64 40.311 705.432 41.0611 707.341 41.0611C709.249 41.0606 711.041 40.3106 712.386 38.9482L724.679 26.5055L722.763 24.5662Z" fill="black"/>
<path fill-rule="evenodd" clip-rule="evenodd" d="M742.255 28.7399C742.413 29.5338 742.785 30.1554 743.369 30.6033C743.952 31.052 744.72 31.276 745.671 31.276C746.608 31.276 747.332 31.0556 747.844 30.6144C748.356 30.1736 748.611 29.5929 748.611 28.8723C748.611 28.5195 748.543 28.2218 748.406 27.9792C748.269 27.7366 748.078 27.5309 747.833 27.3616C747.588 27.1932 747.285 27.0493 746.925 26.932C746.565 26.8142 746.161 26.6894 745.714 26.557L744.547 26.2264C743.855 26.0354 743.235 25.8039 742.687 25.5315C742.139 25.2596 741.671 24.9397 741.282 24.5723C740.893 24.2048 740.597 23.7823 740.396 23.3042C740.194 22.8266 740.093 22.2712 740.093 21.6394C740.093 20.9778 740.223 20.3678 740.482 19.8089C740.742 19.2508 741.109 18.7723 741.585 18.3755C742.061 17.9788 742.637 17.6664 743.315 17.438C743.992 17.211 744.755 17.0968 745.606 17.0968C747.206 17.0968 748.474 17.4825 749.412 18.2542C750.348 19.0264 750.896 20.059 751.055 21.3528L748.46 21.5732C748.301 20.9116 747.984 20.3971 747.509 20.0297C747.033 19.6622 746.37 19.4783 745.52 19.4783C744.727 19.4783 744.107 19.6658 743.661 20.0408C743.213 20.4158 742.99 20.8974 742.99 21.4852C742.99 21.8233 743.055 22.1059 743.185 22.3338C743.315 22.5622 743.502 22.7604 743.747 22.9292C743.992 23.0985 744.291 23.2491 744.644 23.3811C744.997 23.5135 745.397 23.6539 745.844 23.8005L746.947 24.1533C747.638 24.3737 748.262 24.6051 748.817 24.8477C749.371 25.0903 749.844 25.3809 750.233 25.719C750.622 26.0571 750.921 26.4615 751.13 26.932C751.339 27.4025 751.444 27.9832 751.444 28.6741C751.444 29.4094 751.3 30.0821 751.012 30.6917C750.723 31.3022 750.32 31.8202 749.801 32.2463C749.282 32.6729 748.666 33.0039 747.952 33.2385C747.238 33.4735 746.449 33.5917 745.585 33.5917C743.985 33.5917 742.651 33.2096 741.585 32.4449C740.518 31.6803 739.862 30.5264 739.617 28.9825L742.255 28.7399Z" fill="black"/>
<path fill-rule="evenodd" clip-rule="evenodd" d="M762.604 19.7786C761.827 19.7786 761.131 19.925 760.519 20.2169C759.906 20.5092 759.388 20.9143 758.963 21.4326C758.538 21.9514 758.213 22.5653 757.99 23.2729C757.767 23.9818 757.655 24.7522 757.655 25.5846C757.655 26.4174 757.77 27.1913 758.001 27.9073C758.231 28.6229 758.559 29.2434 758.984 29.7697C759.409 30.2951 759.928 30.7077 760.541 31.0076C761.153 31.3065 761.848 31.456 762.626 31.456C763.404 31.456 764.099 31.3141 764.712 31.0292C765.324 30.7444 765.843 30.3464 766.268 29.8347C766.693 29.3239 767.021 28.7065 767.251 27.9838C767.482 27.2607 767.597 26.4682 767.597 25.6067C767.597 24.7593 767.482 23.9779 767.251 23.2623C767.021 22.5471 766.693 21.9333 766.268 21.422C765.843 20.9112 765.32 20.5092 764.701 20.2169C764.082 19.925 763.383 19.7786 762.604 19.7786ZM762.626 17.4081C763.793 17.4081 764.86 17.6093 765.825 18.0118C766.79 18.4142 767.611 18.9772 768.289 19.7016C768.966 20.4265 769.491 21.2933 769.867 22.303C770.241 23.3127 770.428 24.4175 770.428 25.6173C770.428 26.8618 770.23 27.9847 769.834 28.9869C769.437 29.9895 768.873 30.8563 768.137 31.5878L770.212 34.0684V34.8367H767.576L766.127 33.0371C765.623 33.2711 765.082 33.4537 764.507 33.5855C763.93 33.7173 763.31 33.7832 762.648 33.7832C761.452 33.7832 760.375 33.5815 759.417 33.1795C758.458 32.777 757.644 32.2136 756.974 31.4892C756.304 30.7648 755.786 29.9019 755.418 28.8989C755.051 27.8967 754.867 26.803 754.867 25.6173C754.867 24.4175 755.051 23.3167 755.418 22.3136C755.786 21.3119 756.308 20.4482 756.985 19.7238C757.662 18.9993 758.48 18.4324 759.438 18.0224C760.397 17.6133 761.459 17.4081 762.626 17.4081Z" fill="black"/>
<path fill-rule="evenodd" clip-rule="evenodd" d="M781.01 31.3207C782.116 31.3207 782.977 30.972 783.595 30.2736C784.212 29.5753 784.521 28.506 784.521 27.0652V17.4081H787.235V27.1314C787.235 28.278 787.091 29.259 786.804 30.0751C786.516 30.8907 786.107 31.5597 785.576 32.0817C785.045 32.6037 784.391 32.9858 783.616 33.2284C782.841 33.4709 781.972 33.5918 781.01 33.5918C780.033 33.5918 779.161 33.4709 778.393 33.2284C777.625 32.9858 776.975 32.6037 776.444 32.0817C775.913 31.5597 775.504 30.8907 775.216 30.0751C774.929 29.259 774.786 28.278 774.786 27.1314V17.4081H777.5V27.0652C777.5 28.506 777.808 29.5753 778.426 30.2736C779.043 30.972 779.904 31.3207 781.01 31.3207Z" fill="black"/>
<path fill-rule="evenodd" clip-rule="evenodd" d="M795.01 26.4968H800.203L799.348 24.0261C799.012 23.0584 798.742 22.2707 798.537 21.6641C798.333 21.0572 798.15 20.5227 797.99 20.0602H797.311C797.223 20.3056 797.135 20.5515 797.047 20.7969C796.96 21.0427 796.861 21.3174 796.752 21.6205C796.642 21.9239 796.522 22.2707 796.39 22.661C796.259 23.0506 796.098 23.506 795.908 24.0261L795.01 26.4968ZM790.036 32.522L795.623 17.7192H799.765L805.286 32.522V33.2805H802.569L800.991 28.8373H794.177L792.6 33.2805H790.036V32.522Z" fill="black"/>
<path fill-rule="evenodd" clip-rule="evenodd" d="M811.4 24.828H813.766C814.807 24.828 815.628 24.6381 816.228 24.259C816.829 23.8795 817.13 23.2603 817.13 22.4005C817.13 21.5271 816.825 20.9188 816.218 20.5752C815.61 20.2319 814.793 20.0599 813.766 20.0599H811.4V24.828ZM820.536 33.2805H817.91L813.158 27.1686H811.4V33.2805H808.709V17.7192H813.766C814.561 17.7192 815.317 17.7734 816.033 17.8817C816.749 17.99 817.397 18.2393 817.976 18.6293C819.205 19.438 819.82 20.659 819.82 22.2909C819.82 22.9992 819.715 23.6167 819.505 24.1442C819.295 24.6712 819.017 25.1188 818.67 25.4874C818.322 25.856 817.921 26.1555 817.466 26.3861C817.01 26.6175 816.536 26.7909 816.044 26.9062L820.536 32.5215V33.2805Z" fill="black"/>
<path fill-rule="evenodd" clip-rule="evenodd" d="M823.959 17.7192H834.077V20.103H826.635V24.1776H833.555V26.5182H826.635V30.8962H834.229V33.2805H823.959V17.7192Z" fill="black"/>
<path fill-rule="evenodd" clip-rule="evenodd" d="M840.291 28.7399C840.449 29.5338 840.821 30.1554 841.405 30.6033C841.988 31.052 842.756 31.276 843.707 31.276C844.644 31.276 845.368 31.0556 845.88 30.6144C846.391 30.1736 846.648 29.5929 846.648 28.8723C846.648 28.5195 846.579 28.2218 846.442 27.9792C846.305 27.7366 846.114 27.5309 845.869 27.3616C845.624 27.1932 845.321 27.0493 844.961 26.932C844.601 26.8142 844.197 26.6894 843.75 26.557L842.583 26.2264C841.891 26.0354 841.271 25.8039 840.723 25.5315C840.175 25.2596 839.707 24.9397 839.319 24.5723C838.929 24.2048 838.633 23.7823 838.432 23.3042C838.23 22.8266 838.129 22.2712 838.129 21.6394C838.129 20.9778 838.259 20.3678 838.518 19.8089C838.778 19.2508 839.145 18.7723 839.621 18.3755C840.097 17.9788 840.673 17.6664 841.351 17.438C842.028 17.211 842.792 17.0968 843.642 17.0968C845.242 17.0968 846.51 17.4825 847.447 18.2542C848.384 19.0264 848.932 20.059 849.09 21.3528L846.496 21.5732C846.337 20.9116 846.02 20.3971 845.545 20.0297C845.069 19.6622 844.406 19.4783 843.556 19.4783C842.763 19.4783 842.143 19.6658 841.697 20.0408C841.25 20.4158 841.026 20.8974 841.026 21.4852C841.026 21.8233 841.091 22.1059 841.221 22.3338C841.351 22.5622 841.538 22.7604 841.783 22.9292C842.028 23.0985 842.327 23.2491 842.68 23.3811C843.033 23.5135 843.433 23.6539 843.88 23.8005L844.983 24.1533C845.674 24.3737 846.298 24.6051 846.853 24.8477C847.407 25.0903 847.88 25.3809 848.268 25.719C848.658 26.0571 848.957 26.4615 849.166 26.932C849.375 27.4025 849.48 27.9832 849.48 28.6741C849.48 29.4094 849.336 30.0821 849.047 30.6917C848.759 31.3022 848.356 31.8202 847.836 32.2463C847.318 32.6729 846.702 33.0039 845.988 33.2385C845.274 33.4735 844.485 33.5917 843.621 33.5917C842.021 33.5917 840.687 33.2096 839.621 32.4449C838.554 31.6803 837.899 30.5264 837.653 28.9825L840.291 28.7399Z" fill="black"/>
<path fill-rule="evenodd" clip-rule="evenodd" d="M856.283 24.9579H858.93C859.416 24.9579 859.86 24.9186 860.265 24.8396C860.669 24.761 861.022 24.6287 861.324 24.4422C861.625 24.2562 861.861 24.0056 862.03 23.6903C862.199 23.3754 862.283 22.9886 862.283 22.53C862.283 22.0576 862.199 21.6606 862.03 21.3384C861.861 21.0161 861.629 20.762 861.335 20.5755C861.04 20.389 860.691 20.2567 860.287 20.1781C859.882 20.0995 859.445 20.0598 858.975 20.0598H856.283V24.9579ZM853.525 17.7192H859.305C860.379 17.7192 861.28 17.8419 862.008 18.0878C862.736 18.3332 863.324 18.6725 863.773 19.1065C864.221 19.5397 864.545 20.0489 864.743 20.6345C864.941 21.2192 865.041 21.8515 865.041 22.5305C865.041 23.3401 864.905 24.044 864.633 24.6435C864.361 25.2431 863.967 25.7378 863.453 26.1282C862.937 26.5182 862.313 26.8107 861.577 27.0059C860.842 27.2011 860.011 27.2985 859.085 27.2985H856.283V33.2805H853.525V17.7192Z" fill="black"/>
<path fill-rule="evenodd" clip-rule="evenodd" d="M870.638 26.4968H875.831L874.976 24.0261C874.639 23.0584 874.369 22.2707 874.165 21.6641C873.96 21.0572 873.778 20.5227 873.617 20.0602H872.938C872.851 20.3056 872.763 20.5515 872.675 20.7969C872.588 21.0427 872.489 21.3174 872.379 21.6205C872.27 21.9239 872.15 22.2707 872.018 22.661C871.886 23.0506 871.726 23.506 871.536 24.0261L870.638 26.4968ZM865.664 32.522L871.251 17.7192H875.392L880.914 32.522V33.2805H878.197L876.619 28.8373H869.805L868.227 33.2805H865.664V32.522Z" fill="black"/>
<path fill-rule="evenodd" clip-rule="evenodd" d="M897.408 29.1662C897.161 29.7737 896.837 30.3455 896.437 30.8818C896.036 31.4181 895.552 31.8879 894.985 32.2892C894.417 32.6904 893.759 33.0078 893.009 33.2412C892.259 33.4746 891.426 33.5917 890.509 33.5917C889.345 33.5917 888.286 33.3889 887.333 32.9837C886.379 32.5794 885.566 32.0186 884.892 31.3031C884.218 30.5867 883.697 29.734 883.331 28.7431C882.964 27.7526 882.781 26.6787 882.781 25.5213C882.781 24.3648 882.964 23.2908 883.331 22.3C883.697 21.3095 884.221 20.4524 884.902 19.729C885.584 19.0065 886.401 18.4383 887.355 18.0265C888.308 17.6139 889.374 17.4081 890.553 17.4081C892.27 17.4081 893.708 17.8062 894.865 18.6013C896.022 19.3964 896.841 20.4524 897.321 21.7685L894.549 22.3104C894.17 21.5154 893.642 20.8895 892.965 20.434C892.288 19.9786 891.47 19.7508 890.509 19.7508C889.738 19.7508 889.05 19.8986 888.446 20.1941C887.842 20.4895 887.333 20.8965 886.918 21.4153C886.503 21.9337 886.186 22.546 885.968 23.2524C885.75 23.9583 885.641 24.7144 885.641 25.5213C885.641 26.3426 885.753 27.1027 885.979 27.8016C886.204 28.5009 886.532 29.1054 886.961 29.6173C887.391 30.1287 887.911 30.5282 888.523 30.8162C889.134 31.1047 889.833 31.2489 890.618 31.2489C891.637 31.2489 892.478 31.0028 893.14 30.5111C893.803 30.0194 894.315 29.4193 894.679 28.7103L897.408 29.1662Z" fill="black"/>
<path fill-rule="evenodd" clip-rule="evenodd" d="M900.969 17.5314H911.144V19.9383H903.66V24.0523H910.619V26.4155H903.66V30.836H911.298V33.2433H900.969V17.5314Z" fill="black"/>
<path fill-rule="evenodd" clip-rule="evenodd" d="M995.96 15.2299C997.714 14.8967 999.468 14.5459 1001.2 14.2126C1001.19 21.9829 1001.19 29.7357 1001.2 37.4885C999.468 37.1377 997.714 36.7693 995.978 36.436C995.925 35.752 995.96 35.0679 995.96 34.3838C995.943 28.0167 995.943 21.6321 995.96 15.2299ZM1038.39 18.6678C1036.92 18.7029 1035.41 19.1589 1034.27 20.1061C1033.32 20.8779 1032.64 21.9303 1032.25 23.0879C1031.83 24.3333 1031.74 25.6839 1031.9 26.9994C1032.08 28.5079 1032.67 29.9988 1033.72 31.1038C1034.55 31.9808 1035.67 32.5947 1036.85 32.8578C1038.32 33.1911 1039.92 33.1385 1041.3 32.4895C1042.32 32.0335 1043.16 31.2266 1043.76 30.2794C1044.42 29.2095 1044.76 27.9641 1044.86 26.7012C1044.99 25.2805 1044.83 23.8246 1044.3 22.4916C1043.85 21.2988 1043.02 20.2289 1041.92 19.5448C1040.86 18.8958 1039.62 18.6152 1038.39 18.6678ZM1037.62 13.7741C1040.16 13.5987 1042.83 14.0723 1045.02 15.4229C1046.25 16.1771 1047.3 17.1769 1048.12 18.3521C1048.84 19.4045 1049.37 20.5797 1049.74 21.8075C1050.12 23.123 1050.26 24.5087 1050.28 25.8768C1050.28 28.3851 1049.7 30.946 1048.32 33.0683C1047.11 34.9627 1045.27 36.436 1043.16 37.2078C1041.79 37.7165 1040.35 37.962 1038.9 37.9971C1036.16 38.0497 1033.34 37.3832 1031.11 35.7695C1029.22 34.4189 1027.83 32.4369 1027.13 30.2268C1026.64 28.7534 1026.45 27.1748 1026.46 25.6137C1026.48 22.895 1027.27 20.1237 1028.97 17.9837C1030.36 16.2122 1032.34 14.9493 1034.5 14.3178C1035.5 14.0021 1036.55 13.8267 1037.62 13.7741ZM962.423 14.809C963.686 14.0723 965.142 13.7215 966.598 13.739C968.913 13.8267 971.141 15.0195 972.492 16.9138C973.176 15.9842 974.123 15.265 975.14 14.7563C977.438 13.6513 980.227 13.4759 982.595 14.4406C983.7 14.8967 984.7 15.5983 985.471 16.5104C986.261 17.44 986.787 18.5626 987.103 19.7202C987.436 20.9305 987.524 22.1934 987.488 23.4388C987.488 28.122 987.488 32.8228 987.488 37.506C985.752 37.1552 983.998 36.7868 982.244 36.4536C982.226 31.9633 982.244 27.473 982.226 22.9827C982.244 21.9478 981.876 20.8954 981.139 20.1763C980.35 19.3694 979.192 18.9835 978.069 19.0011C977.07 18.9835 976.052 19.2817 975.263 19.9132C974.368 20.6148 973.895 21.7724 973.895 22.9125C973.895 27.7712 973.895 32.6474 973.895 37.506C972.141 37.1552 970.387 36.7868 968.633 36.4536C968.615 35.0153 968.633 33.5594 968.615 32.1036C968.615 29.0867 968.615 26.0698 968.615 23.0353C968.65 22.0005 968.299 20.9305 967.563 20.1938C966.914 19.5273 966.019 19.1414 965.125 19.0362C964.265 18.9485 963.388 19.0186 962.581 19.3519C961.739 19.7027 961.02 20.3692 960.634 21.1936C960.371 21.7549 960.249 22.3688 960.249 22.9827C960.249 26.7714 960.249 30.5601 960.249 34.3488C960.266 35.4012 960.231 36.4536 960.266 37.506C958.512 37.1727 956.776 36.7868 955.039 36.4711C955.004 35.8572 955.057 35.2258 955.004 34.6294C955.022 33.9278 955.022 33.2262 955.004 32.5246C955.057 31.8756 955.004 31.2091 955.022 30.5601C955.022 28.7008 955.022 26.8416 955.022 24.9823C955.004 23.8246 955.039 22.6494 955.004 21.4918C955.022 20.8428 955.022 20.1763 955.004 19.5273C955.039 18.2293 955.022 16.9489 955.022 15.6509C955.039 15.5281 954.934 15.3352 955.074 15.265C956.811 14.9317 958.53 14.5985 960.266 14.2652C960.249 15.0545 960.266 15.8438 960.266 16.6332C960.88 15.8965 961.599 15.265 962.423 14.809ZM1019.64 14.0898C1020.48 13.9495 1021.34 13.8092 1022.18 13.6689C1022.18 15.493 1022.18 17.3172 1022.18 19.1414C1021.34 19.2993 1020.5 19.4571 1019.66 19.5974C1018.39 19.8079 1017.08 20.1763 1016.13 21.0884C1015.36 21.8075 1014.99 22.8599 1014.92 23.8948C1014.87 24.6315 1014.9 25.3682 1014.9 26.1224C1014.9 29.9111 1014.9 33.6998 1014.9 37.4885C1013.45 37.1903 1011.99 36.8921 1010.52 36.6114C1010.24 36.5588 1009.98 36.4887 1009.68 36.4536C1009.61 36.0502 1009.66 35.6467 1009.64 35.2433C1009.64 31.2091 1009.64 27.1924 1009.64 23.1581C1009.68 21.8952 1009.89 20.6148 1010.41 19.4396C1010.92 18.2644 1011.82 17.2646 1012.87 16.5279C1014.27 15.5632 1015.9 14.9844 1017.55 14.5459C1018.25 14.388 1018.92 14.1951 1019.64 14.0898ZM998.065 4.03928C998.907 3.93404 999.819 4.02174 1000.54 4.53041C1001.36 5.07415 1001.82 6.05641 1001.84 7.02112C1001.89 7.30176 1001.82 7.59994 1001.82 7.88059C1001.73 8.7576 1001.28 9.59953 1000.52 10.0907C999.732 10.6169 998.714 10.7046 997.785 10.5116C997.013 10.3538 996.294 9.86263 995.855 9.17856C995.346 8.37171 995.259 7.35438 995.452 6.42475C995.627 5.54774 996.223 4.74089 997.03 4.35501C997.364 4.19714 997.714 4.0919 998.065 4.03928Z" fill="black"/>
<path d="M1168.59 28.951V21.8439C1168.59 21.6584 1168.47 21.5349 1168.28 21.5349H1165.92V18.7537H1168.28C1168.47 18.7537 1168.59 18.6301 1168.59 18.4447V13.9951H1171.95V18.4447C1171.95 18.6301 1172.07 18.7537 1172.26 18.7537H1175.56V21.5349H1172.26C1172.07 21.5349 1171.95 21.6584 1171.95 21.8439V28.1477C1171.95 31.1142 1173.01 31.3613 1174.38 31.3613C1174.87 31.3613 1175.62 31.2995 1176.06 31.2377V34.1423C1175.5 34.2042 1174.56 34.3278 1173.51 34.3278C1172.2 34.266 1168.59 34.266 1168.59 28.951ZM1259.89 30.6815L1262.63 29.26C1263.25 30.6815 1264.43 31.6085 1265.8 31.6085C1266.86 31.6085 1268.04 31.1758 1268.04 29.878C1268.04 29.0128 1267.48 28.5184 1266.18 28.0859L1264.31 27.4679C1261.7 26.6644 1260.39 25.1812 1260.39 23.0799C1260.39 20.4224 1262.63 18.4447 1265.68 18.4447C1268.1 18.4447 1270.16 19.7426 1271.15 21.782L1268.41 23.2652C1267.79 21.9674 1266.8 21.2259 1265.62 21.2259C1264.43 21.2259 1263.63 21.8439 1263.63 22.7709C1263.63 23.5742 1264.25 24.1924 1265.49 24.563L1267.36 25.1812C1270.09 26.0464 1271.4 27.5295 1271.4 29.569C1271.4 32.7828 1268.6 34.4515 1265.8 34.4515C1263 34.3897 1260.76 32.9682 1259.89 30.6815ZM1249.57 27.9004C1249.51 27.9622 1249.45 28.024 1249.45 28.0859V34.0188H1246.02V12.0791H1249.45V24.0687C1249.45 24.1924 1249.51 24.3159 1249.63 24.3159C1249.76 24.3777 1249.88 24.3159 1249.94 24.254L1255.48 18.6919H1259.65L1253.18 25.1812C1253.05 25.3047 1253.05 25.4284 1253.18 25.5519L1260.21 34.0188H1256.04L1250.63 27.3442C1250.56 27.2824 1250.5 27.2205 1250.44 27.2205C1250.38 27.2205 1250.32 27.2205 1250.25 27.2824L1249.57 27.9004ZM1244.35 20.7932L1242.17 22.8327C1240.92 21.9057 1239.68 21.473 1238.31 21.473C1235.45 21.473 1233.34 23.5742 1233.34 26.4172C1233.34 29.26 1235.45 31.3613 1238.31 31.3613C1239.56 31.3613 1240.86 30.9287 1242.23 30.0017L1244.16 32.0412C1241.36 34.0807 1239.87 34.4515 1237.94 34.4515C1235.64 34.4515 1233.59 33.648 1232.09 32.1647C1230.66 30.7433 1229.85 28.642 1229.85 26.4172C1229.85 21.782 1233.27 18.3829 1238 18.3829C1239.56 18.3829 1241.86 18.6301 1244.35 20.7932ZM1228.3 14.1804C1228.3 15.2929 1227.37 16.2199 1226.25 16.2199C1225.13 16.2199 1224.19 15.2929 1224.19 14.1804C1224.19 13.0679 1225.13 12.1409 1226.25 12.1409C1227.37 12.1409 1228.3 13.0679 1228.3 14.1804ZM1227.99 34.0188H1224.57V18.7537H1227.99V34.0188ZM1217.1 27.3442V34.0807H1213.68V18.8156H1217.04V20.6696C1217.04 20.7932 1217.1 20.9169 1217.23 20.9786C1217.35 21.0404 1217.48 20.9786 1217.54 20.855C1218.41 19.4336 1220.03 18.5066 1221.77 18.5066C1222.02 18.5066 1222.2 18.5066 1222.33 18.5684V22.0292C1222.14 21.9674 1221.83 21.9674 1221.52 21.9674C1218.78 21.9057 1217.1 24.0069 1217.1 27.3442ZM1198.76 26.4172C1198.76 23.636 1200.87 21.473 1203.61 21.473C1206.34 21.473 1208.46 23.636 1208.46 26.4172C1208.46 29.1982 1206.34 31.3613 1203.61 31.3613C1200.87 31.3613 1198.76 29.1982 1198.76 26.4172ZM1199.07 32.2265C1199.13 32.2265 1199.13 32.2265 1199.19 32.2265C1199.25 32.2265 1199.38 32.2883 1199.44 32.3502C1200.62 33.7098 1202.36 34.4515 1204.35 34.4515C1208.58 34.4515 1211.82 30.9287 1211.82 26.4172C1211.82 24.1924 1211.07 22.2147 1209.64 20.6696C1208.27 19.1864 1206.34 18.3829 1204.29 18.3829C1202.36 18.3829 1200.56 19.1864 1199.38 20.6077C1199.32 20.6696 1199.19 20.7314 1199.07 20.6696C1198.94 20.6077 1198.88 20.546 1198.88 20.4224V12.1409H1195.46V34.0807H1198.88V32.5355C1198.88 32.3502 1198.94 32.2883 1199.07 32.2265ZM1184.89 31.3613C1182.21 31.3613 1180.04 29.1982 1180.04 26.4172C1180.04 23.636 1182.15 21.473 1184.89 21.473C1187.62 21.473 1189.74 23.636 1189.74 26.4172C1189.74 29.1982 1187.56 31.3613 1184.89 31.3613ZM1192.91 34.0188V18.7537H1189.55V20.2987C1189.55 20.4224 1189.49 20.546 1189.37 20.546C1189.24 20.6077 1189.12 20.546 1189.05 20.4842C1187.93 19.1246 1186.19 18.3829 1184.14 18.3829C1179.91 18.3829 1176.68 21.9057 1176.68 26.4172C1176.68 30.9287 1179.97 34.4515 1184.14 34.4515C1186.07 34.4515 1187.87 33.648 1189.05 32.2265C1189.12 32.103 1189.24 32.103 1189.37 32.1647C1189.49 32.2265 1189.55 32.2883 1189.55 32.412V34.0807H1192.91V34.0188ZM1156.09 31.3613C1153.42 31.3613 1151.24 29.1982 1151.24 26.4172C1151.24 23.636 1153.35 21.473 1156.09 21.473C1158.76 21.473 1160.94 23.636 1160.94 26.4172C1160.94 29.1982 1158.76 31.3613 1156.09 31.3613ZM1164.11 34.0188V18.7537H1160.76V20.2987C1160.76 20.4224 1160.69 20.546 1160.57 20.546C1160.44 20.6077 1160.32 20.546 1160.26 20.4842C1159.14 19.1246 1157.4 18.3829 1155.34 18.3829C1151.11 18.3829 1147.88 21.9057 1147.88 26.4172C1147.88 30.9287 1151.18 34.4515 1155.34 34.4515C1157.27 34.4515 1159.08 33.648 1160.26 32.2265C1160.32 32.103 1160.44 32.103 1160.57 32.1647C1160.69 32.2265 1160.76 32.2883 1160.76 32.412V34.0807H1164.11V34.0188ZM1137.93 31.3613C1135.19 31.3613 1133.08 29.1982 1133.08 26.4172C1133.08 23.636 1135.19 21.473 1137.93 21.473C1140.6 21.473 1142.78 23.636 1142.78 26.4172C1142.78 29.1982 1140.6 31.3613 1137.93 31.3613ZM1145.95 34.0188V12.1409H1142.53V20.3606C1142.53 20.4842 1142.47 20.6077 1142.35 20.6077C1142.22 20.6696 1142.1 20.6077 1142.03 20.546C1140.85 19.1864 1139.11 18.4447 1137.12 18.4447C1132.89 18.4447 1129.66 21.9674 1129.66 26.479C1129.66 28.7039 1130.4 30.6815 1131.83 32.2265C1133.2 33.7098 1135.13 34.5132 1137.18 34.5132C1139.11 34.5132 1140.92 33.7098 1142.1 32.2883C1142.16 32.2265 1142.28 32.1647 1142.41 32.2265C1142.53 32.2883 1142.59 32.3502 1142.59 32.4738V34.0807H1145.95V34.0188Z" fill="black"/>
<path d="M1121 20.7622L1108.23 28.0056L1094.64 20.288L1094 20.6328V26.2379L1108.23 34.3436L1121 27.1002V30.0751L1108.23 37.3186L1094.64 29.6008L1094 29.9458V30.8944L1108.23 39L1122.5 30.8944V25.2893L1121.86 24.9443L1108.23 32.6621L1095.5 25.4186V22.4868L1108.23 29.6871L1122.5 21.5814V16.0626L1121.77 15.6746L1108.23 23.3491L1096.19 16.4937L1108.23 9.6815L1118.17 15.2865L1119.07 14.8122V14.1224L1108.23 8L1094 16.0626V16.9249L1108.23 25.0306L1121 17.7872V20.7622Z" fill="black"/>
<path d="M1454.55 18.185C1454.55 17.6444 1454.17 17.284 1453.54 17.284L1452.32 17.3066L1452.34 20.0544H1453.01V19.1084H1453.41L1453.99 20.0544H1454.77L1454.08 18.9958C1454.22 18.9157 1454.34 18.798 1454.42 18.6553C1454.51 18.5127 1454.55 18.3502 1454.55 18.185ZM1453.41 18.5454H1452.99V17.8471H1453.48C1453.57 17.8373 1453.65 17.8623 1453.72 17.9168C1453.8 17.9714 1453.84 18.0513 1453.86 18.1399V18.1625C1453.85 18.2181 1453.84 18.2728 1453.82 18.323C1453.79 18.3732 1453.76 18.4178 1453.72 18.4538C1453.68 18.4899 1453.63 18.5167 1453.57 18.5325C1453.52 18.5482 1453.46 18.5526 1453.41 18.5454V18.5454ZM1354.36 30.8882C1353.23 30.8882 1352.44 29.9873 1352.44 28.6584V22.5996H1357.13V18.3201H1352.45L1352.41 13.41H1347.23L1347.27 29.762C1347.27 33.073 1349.46 35.3253 1352.68 35.3253C1354.37 35.3253 1355.98 35.0776 1357.26 34.4919V30.3251C1356.35 30.7482 1355.36 30.9415 1354.36 30.8882V30.8882ZM1366.73 18.0498C1361.91 18.0498 1358.2 21.8338 1358.2 26.8565C1358.2 31.8342 1361.91 35.3028 1367.02 35.3028C1369.9 35.3028 1372.61 34.2667 1374.26 32.127L1370.28 30.3026C1369.48 31.0459 1368.25 31.3387 1367.16 31.3387C1365.37 31.3387 1363.59 30.4152 1363.34 28.5232H1375.2C1375.37 27.8472 1375.46 27.1506 1375.46 26.4511C1375.46 21.2932 1371.73 18.0498 1366.74 18.0498H1366.73ZM1363.34 25.2123C1363.5 22.9599 1365.1 21.9239 1366.87 21.9239C1368.85 21.9239 1370.35 23.05 1370.35 24.9871V25.2123H1363.34ZM1342.31 30.8882C1341.17 30.8882 1340.39 29.9873 1340.39 28.6584V22.5996H1345.08V18.3201H1340.4L1340.35 13.41H1335.17L1335.22 29.762C1335.22 33.073 1337.41 35.3253 1340.62 35.3253C1342.32 35.3253 1343.93 35.0776 1345.2 34.4919V30.3251C1344.3 30.7502 1343.3 30.9437 1342.31 30.8882V30.8882ZM1324.11 18.0498C1319.67 18.0498 1315 21.0004 1315 26.9466C1315 31.9017 1318.3 35.3704 1322.48 35.3704C1324.87 35.3704 1326.68 34.4019 1327.86 32.6901L1328.02 35.0775H1333.03V27.1493C1333.03 21.113 1328.62 18.0498 1324.11 18.0498V18.0498ZM1324.11 30.7981C1321.85 30.7981 1320.22 29.1088 1320.22 26.7214C1320.22 24.3339 1321.83 22.6446 1324.11 22.6446C1326.21 22.6446 1327.95 24.4915 1327.95 26.7214C1327.95 28.9512 1326.21 30.7981 1324.11 30.7981V30.7981ZM1453.3 16.0452C1451.67 16.0678 1450.62 17.1264 1450.64 18.703C1450.66 20.2797 1451.74 21.3157 1453.36 21.2932C1454.95 21.2707 1456.02 20.2121 1456 18.6129C1455.98 17.0138 1454.91 16.0227 1453.3 16.0452V16.0452ZM1453.36 20.8427C1452.09 20.8653 1451.22 20.0094 1451.22 18.703C1451.22 17.3967 1452.05 16.5182 1453.32 16.4957C1454.59 16.4732 1455.44 17.3291 1455.46 18.658C1455.46 19.9418 1454.62 20.8202 1453.38 20.8427H1453.36ZM1427.98 18.3426L1424.36 28.9287L1420.7 18.3426H1415.07L1421.82 35.055H1426.86L1433.6 18.3426H1427.98ZM1441.4 18.0498C1436.57 18.0498 1432.87 21.8338 1432.87 26.8565C1432.87 31.8342 1436.57 35.3028 1441.69 35.3028C1444.57 35.3028 1447.27 34.2667 1448.92 32.127L1444.95 30.3026C1444.14 31.0459 1442.92 31.3387 1441.82 31.3387C1440.04 31.3387 1438.25 30.4152 1438 28.5232H1449.86C1450.04 27.8472 1450.13 27.1506 1450.13 26.4511C1450.13 21.2932 1446.4 18.0498 1441.4 18.0498ZM1445.01 25.2123H1438C1438.16 22.9599 1439.77 21.9239 1441.53 21.9239C1443.52 21.9239 1445.01 23.05 1445.01 24.9871V25.2123ZM1411.08 11C1409.25 11 1407.86 12.2388 1407.86 13.9731C1407.86 15.7074 1409.25 16.9912 1411.08 16.9912C1412.91 16.9912 1414.29 15.7299 1414.29 13.9731C1414.29 12.2163 1412.93 11 1411.08 11V11ZM1387.57 18.0273C1386.52 18.0103 1385.48 18.2668 1384.57 18.772C1383.65 19.2772 1382.87 20.0139 1382.32 20.9103L1382.14 18.3426H1377.14V35.055H1382.32V26.2934C1382.43 24.1987 1384.1 22.5996 1385.94 22.5996C1387.99 22.5996 1388.93 24.1537 1388.93 26.1132V35.0325H1394.08V25.3024C1394.08 21.068 1391.53 18.0273 1387.57 18.0273V18.0273ZM1403.37 30.8882C1402.23 30.8882 1401.45 29.9873 1401.45 28.6584V22.5996H1406.14V18.3201H1401.45L1401.41 13.41H1396.23L1396.27 29.762C1396.27 33.073 1398.46 35.3253 1401.68 35.3253C1403.37 35.3253 1404.98 35.0776 1406.25 34.4919V30.3251C1405.35 30.7484 1404.36 30.9418 1403.37 30.8882V30.8882ZM1408.46 18.3426V35.055H1413.69V18.3426C1412.91 18.8604 1412.01 19.1366 1411.08 19.1366C1410.15 19.1366 1409.24 18.8604 1408.46 18.3426V18.3426Z" fill="black"/>
</svg>
