<svg width="25" height="25" fill="none" xmlns="http://www.w3.org/2000/svg">
<path d="M3.64582 0.728317C3.75192 0.77933 3.84145 0.85927 3.90411 0.958932C3.96677 1.0586 4 1.17393 3.99999 1.29165C3.99999 1.98332 4.25999 2.38165 4.58582 2.86665L4.60999 2.90165C4.88666 3.31332 5.24999 3.85248 5.24999 4.62498C5.24999 5.41332 4.85249 6.10832 4.24666 6.52082C4.40582 6.65415 4.54666 6.81832 4.66832 7.01498C5.06499 7.65665 5.24999 8.63748 5.24999 10.0458C5.24999 11.4725 5.05832 13.1858 4.74582 14.5542C4.59082 15.2342 4.39832 15.8616 4.16916 16.3325C4.06096 16.5668 3.91765 16.7831 3.74416 16.9741C3.57249 17.15 3.30832 17.3375 2.95832 17.3375C2.60832 17.3375 2.34416 17.15 2.17332 16.9741C1.99933 16.7835 1.85596 16.5671 1.74832 16.3325C1.51832 15.8608 1.32582 15.2341 1.17082 14.5533C0.845779 13.0723 0.676801 11.5612 0.666657 10.045C0.666657 8.63665 0.851657 7.65665 1.24832 7.01498C1.36149 6.82873 1.50386 6.66188 1.66999 6.52082C1.36064 6.31079 1.10744 6.02817 0.932534 5.69769C0.75763 5.3672 0.666344 4.9989 0.666657 4.62498C0.666657 4.31832 0.666657 3.79082 0.985824 3.10998C1.29832 2.44332 1.89249 1.67748 2.98416 0.803317C3.07616 0.72972 3.1871 0.683629 3.30417 0.670359C3.42124 0.657089 3.53968 0.67718 3.64582 0.728317ZM1.91666 4.62415V4.62498C1.91666 4.90125 2.0264 5.1662 2.22175 5.36155C2.4171 5.5569 2.68206 5.66665 2.95832 5.66665C3.23459 5.66665 3.49954 5.5569 3.69489 5.36155C3.89024 5.1662 3.99999 4.90125 3.99999 4.62498C3.99999 4.25915 3.84582 4.00582 3.54832 3.56332L3.53832 3.54832C3.34749 3.26498 3.12166 2.92915 2.96166 2.49832C2.50916 2.95832 2.25916 3.33998 2.11832 3.63998C1.91666 4.06998 1.91666 4.37582 1.91666 4.62332V4.62415ZM2.31166 7.67165C2.10499 8.00665 1.91666 8.69332 1.91666 10.0458C1.91666 11.38 2.09832 13 2.38916 14.2758C2.53582 14.9175 2.70249 15.4383 2.87166 15.785C2.90249 15.8492 2.93166 15.9025 2.95832 15.9475C2.98499 15.9025 3.01416 15.8492 3.04499 15.785C3.21416 15.4383 3.38082 14.9166 3.52749 14.2758C3.81916 13.0008 3.99999 11.3808 3.99999 10.0458C3.99999 8.69332 3.81166 8.00665 3.60499 7.67165C3.54266 7.55887 3.44845 7.46698 3.33416 7.40748C3.21581 7.35594 3.08729 7.33201 2.95832 7.33748C2.79166 7.33748 2.67249 7.36332 2.58249 7.40748C2.46819 7.46698 2.37399 7.55887 2.31166 7.67165ZM7.33332 11.4316C6.89183 11.3576 6.46238 11.2242 6.05666 11.035C6.08105 10.5623 6.088 10.089 6.07749 9.61582C6.45332 9.86832 6.87749 10.0541 7.33332 10.1575V7.74998C7.33332 7.41846 7.46502 7.10052 7.69944 6.8661C7.93386 6.63168 8.2518 6.49998 8.58332 6.49998H11.9167C11.9166 5.80056 11.721 5.11509 11.3518 4.52101C10.9827 3.92694 10.4548 3.44794 9.8277 3.13813C9.20063 2.82833 8.49942 2.70006 7.80329 2.76784C7.10716 2.83561 6.44386 3.09671 5.88832 3.52165C5.72166 3.06082 5.48416 2.70832 5.31916 2.46332L5.28582 2.41332C6.03454 1.88552 6.91386 1.57356 7.8278 1.51147C8.74174 1.44939 9.65517 1.63958 10.4684 2.06128C11.2816 2.48297 11.9633 3.11997 12.4392 3.90273C12.915 4.6855 13.1667 5.58394 13.1667 6.49998H16.0833C16.4148 6.49998 16.7328 6.63168 16.9672 6.8661C17.2016 7.10052 17.3333 7.41846 17.3333 7.74998V15.25C17.3333 15.5815 17.2016 15.8994 16.9672 16.1339C16.7328 16.3683 16.4148 16.5 16.0833 16.5H8.58332C8.2518 16.5 7.93386 16.3683 7.69944 16.1339C7.46502 15.8994 7.33332 15.5815 7.33332 15.25V11.4308V11.4316ZM8.58332 11.4841V15.2508H16.0833V7.75082H13.0083C12.7487 8.755 12.1834 9.65368 11.3906 10.3225C10.5979 10.9913 9.61688 11.3973 8.58332 11.4841ZM11.7033 7.75082H8.58332V10.2283C9.28349 10.1498 9.94742 9.87583 10.4992 9.4377C11.0509 8.99957 11.4682 8.41498 11.7033 7.75082Z" fill="black"/>
</svg>
