<svg width="19" height="19" viewBox="0 0 20 20" fill="none" xmlns="http://www.w3.org/2000/svg">
<path fill-rule="evenodd" clip-rule="evenodd" d="M3.34171 3.31805C3.79732 2.86566 4.53601 2.86566 4.99162 3.31805L10 8.2909L15.0084 3.31805C15.464 2.86566 16.2027 2.86566 16.6583 3.31805C17.1139 3.77043 17.1139 4.50388 16.6583 4.95626L11.6499 9.92911L16.6583 14.902C17.1139 15.3543 17.1139 16.0878 16.6583 16.5402C16.2027 16.9926 15.464 16.9926 15.0084 16.5402L10 11.5673L4.99162 16.5402C4.53601 16.9926 3.79732 16.9926 3.34171 16.5402C2.8861 16.0878 2.8861 15.3543 3.34171 14.902L8.35008 9.92911L3.34171 4.95626C2.8861 4.50388 2.8861 3.77043 3.34171 3.31805Z" fill="#F0F0F0"/>
</svg>
